<?xml version="1.0" encoding="utf-8"?>
<!-- Generator: Adobe Illustrator 25.2.1, SVG Export Plug-In . SVG Version: 6.00 Build 0)  -->
<svg version="1.1" id="svg31911" xmlns:svg="http://www.w3.org/2000/svg"
	 xmlns="http://www.w3.org/2000/svg" xmlns:xlink="http://www.w3.org/1999/xlink" x="0px" y="0px" viewBox="0 0 512 512"
	 style="enable-background:new 0 0 512 512;" xml:space="preserve">
<style type="text/css">
	.st0{fill:#101010;}
	.st1{fill:#A2C95C;}
	.st2{fill:#FFFFFF;}
</style>
<path id="path12853" vector-effect="none" class="st0" d="M40,96c-13.2,0-24,10.8-24,24v224c0,13.2,10.8,24,24,24h112.1
	c-0.2,1.5-0.5,3.3-1,5.3c-1.9,7.2-6.5,16.8-18.1,26.7H120c-10.7,0-10.7,16,0,16h96c10.7,0,10.7-16,0-16h-60.8
	c6.2-8.1,9.7-16,11.4-22.7c0.9-3.5,1.3-6.6,1.5-9.3H216c10.8,0.2,10.8-16.2,0-16H40c-4.6,0-8-3.4-8-8v-40h184
	c10.8,0.2,10.8-16.2,0-16H32V120c0-4.6,3.4-8,8-8h304c4.6,0,8,3.4,8,8c-0.1,10.8,16.1,10.8,16,0c0-13.2-10.8-24-24-24L40,96z
	 M55.9,159.8c-4.4,0.1-8,3.7-7.9,8.2v16c0,10.7,16,10.7,16,0v-16C64.1,163.5,60.4,159.8,55.9,159.8z M55.9,207.9
	c-4.4,0.1-8,3.7-7.9,8.2V264c0,10.7,16,10.7,16,0V216C64.1,211.5,60.4,207.8,55.9,207.9z M408,240c-13.2,0-24,10.8-24,24v128
	c0,13.2,10.8,24,24,24h64c13.2,0,24-10.8,24-24V264c0-13.2-10.8-24-24-24H408z M408,256h64c4.6,0,8,3.4,8,8v8h-80v-8
	C400,259.4,403.4,256,408,256L408,256z M400,288h80v80h-80V288z M184,336h16c10.7,0,10.7-16,0-16h-16.4
	C172.5,320.5,173.3,336.5,184,336L184,336z M400,384h80v8c0,4.6-3.4,8-8,8h-64c-4.6,0-8-3.4-8-8L400,384z"/>
<path class="st1" d="M261,142.5c-13.2,0-24,10.9-24,24v224c0,13.2,10.9,24,24,24h96c10.7,0,10.7-16,0-16h-96c-4.6,0-8-3.4-8-8v-40
	h104c10.7,0,10.7-16,0-16H253v-144h160v24c0,10.7,16,10.7,16,0v-48c0-13.2-10.9-24-24-24H261z"/>
<path class="st2" d="M261,158.5h144c4.6,0,8,3.5,8,8v8H253v-8C253,162,256.4,158.5,261,158.5z"/>
<path class="st0" d="M276.9,206.4c-4.4,0.1-8,3.7-7.9,8.2v16c0,10.7,16,10.7,16,0v-16C285.1,210,281.4,206.3,276.9,206.4z"/>
<path class="st0" d="M276.9,254.4c-4.4,0.1-8,3.7-7.9,8.1v48c0,10.7,16,10.7,16,0v-48C285,258,281.4,254.4,276.9,254.4z"/>
<path class="st0" d="M325,366.5c-10.7,0-10.7,16,0,16h16c10.7,0,10.7-16,0-16H325z"/>
</svg>
