<?xml version="1.0" encoding="utf-8"?>
<!-- Generator: Adobe Illustrator 25.2.1, SVG Export Plug-In . SVG Version: 6.00 Build 0)  -->
<svg version="1.1" id="Layer_1" xmlns="http://www.w3.org/2000/svg" xmlns:xlink="http://www.w3.org/1999/xlink" x="0px" y="0px"
	 viewBox="0 0 512 512" style="enable-background:new 0 0 512 512;" xml:space="preserve">
<style type="text/css">
	.st0{fill:#101010;}
	.st1{fill:#A2C95C;}
</style>
<path class="st0" d="M95.4,361.3c-41.9-63.7-41.9-146.7,0-210.6c26.6,16.2,61.2-3,61.2-34.4c0-7.6-2.1-14.8-5.8-20.9
	C206.3,58.9,276.2,54.3,335,81c3.5,1.6,7.5,0,9.1-3.4c1.6-3.5,0-7.5-3.4-9.1C277.1,39.7,201.5,44.9,141.6,85c-6.9-5.6-15.7-9-25.3-9
	c-33.9,0-52.5,39.5-31.3,65.6c-46.3,69.1-46.3,159.7,0,228.8c-21.2,26.1-2.6,65.6,31.3,65.6c22.2,0,40.3-18.1,40.3-40.3
	C156.6,364.3,122,345.1,95.4,361.3L95.4,361.3z M116.3,89.7c14.7,0,26.6,11.9,26.6,26.6s-11.9,26.6-26.6,26.6s-26.6-11.9-26.6-26.6
	S101.6,89.7,116.3,89.7z M116.3,422.3c-14.7,0-26.6-11.9-26.6-26.6c0-14.7,11.9-26.6,26.6-26.6s26.6,11.9,26.6,26.6
	C142.9,410.4,130.9,422.3,116.3,422.3z M427,141.6c21.2-26.1,2.6-65.6-31.3-65.6c-22.2,0-40.3,18.1-40.3,40.3
	c0,31.4,34.5,50.6,61.2,34.4c41.9,63.7,41.9,146.8,0,210.6c-26.6-16.2-61.2,3-61.2,34.4c0,7.6,2.1,14.8,5.8,20.9
	c-56.3,37-127.3,41.2-186.8,13.3c-3.4-1.6-7.5-0.1-9.1,3.3c-1.6,3.4-0.1,7.5,3.3,9.1c64.4,30.2,141.2,25.3,201.8-15.3
	c26.1,21.2,65.6,2.6,65.6-31.3c0-9.6-3.4-18.4-9-25.3C473.3,301.3,473.3,210.7,427,141.6L427,141.6z M369.1,116.3
	c0-14.7,11.9-26.6,26.6-26.6s26.6,11.9,26.6,26.6s-11.9,26.6-26.6,26.6S369.1,130.9,369.1,116.3z M395.7,422.3
	c-14.7,0-26.6-11.9-26.6-26.6c0-14.7,11.9-26.6,26.6-26.6s26.6,11.9,26.6,26.6C422.3,410.4,410.4,422.3,395.7,422.3z"/>
<path class="st0" d="M242.9,293.1c0,6.7,5.4,12.1,12.1,12.1c6.7,0,12.1-5.4,12.1-12.1c0-6.7-5.4-12.1-12.1-12.1
	C248.3,280.9,242.9,286.4,242.9,293.1z"/>
<path class="st0" d="M277.2,270.9c-12.2-12.2-32.1-12.2-44.3,0c-2.7,2.7-7,2.7-9.7,0c-2.7-2.7-2.7-7,0-9.7
	c17.6-17.6,46.2-17.6,63.7,0c4.3,4.3,1.2,11.7-4.8,11.7C280.3,272.9,278.5,272.2,277.2,270.9L277.2,270.9z"/>
<path class="st0" d="M302.9,245.1c-26.5-26.5-69.4-26.5-95.9,0c-2.7,2.7-7,2.7-9.7,0c-2.7-2.7-2.7-7,0-9.7
	c31.9-31.9,83.4-31.9,115.3,0c4.3,4.3,1.2,11.7-4.8,11.7C306,247.1,304.3,246.5,302.9,245.1L302.9,245.1z"/>
<path class="st1" d="M255,156.1c-54.8,0-99.4,44.6-99.4,99.4s44.6,99.4,99.4,99.4c41.1,0,78.5-25.8,93-64.3c1.3-3.5,5.3-5.3,8.8-4
	c3.5,1.3,5.3,5.3,4,8.8c-16.3,43.2-57.9,73.2-105.9,73.2c-62.4,0-113.1-50.8-113.1-113.1S192.6,142.4,255,142.4
	s113.1,50.8,113.1,113.1c0,3.8-3.1,6.9-6.9,6.9c-3.8,0-6.9-3.1-6.9-6.9C354.4,200.7,309.8,156.1,255,156.1L255,156.1z"/>
</svg>
