<?xml version="1.0" encoding="utf-8"?>
<!-- Generator: Adobe Illustrator 25.2.1, SVG Export Plug-In . SVG Version: 6.00 Build 0)  -->
<svg version="1.1" id="Слой_1" xmlns="http://www.w3.org/2000/svg" xmlns:xlink="http://www.w3.org/1999/xlink" x="0px" y="0px"
	 viewBox="0 0 512 512" style="enable-background:new 0 0 512 512;" xml:space="preserve">
<style type="text/css">
	.st0{fill:#101010;}
	.st1{fill:#A2C95C;}
</style>
<g>
	<path class="st0" d="M407.8,218.5c-3.3,0.7-5.5,3.9-4.9,7.2c1.7,7.9,2.7,15.9,3.1,24h-66c-0.2-8.7-0.7-17.4-1.5-25.9
		c-0.4-3.5-3.4-6-6.9-5.6c-3.5,0.4-6,3.4-5.6,6.9c0.8,8.1,1.3,16.3,1.5,24.6h-65.2v-47.4c2.2,0,4.4-0.1,6.6-0.4
		c3.5-0.3,6-3.3,5.7-6.7c-0.3-3.5-3.3-6-6.7-5.7c-1.8,0.2-3.7,0.2-5.6,0.3v-83.6c8,0.3,16,1.3,23.8,2.9c3.4,0.7,6.7-1.5,7.4-4.9
		c0.7-3.4-1.5-6.7-4.9-7.4l0,0c-87.9-18.1-173.8,38.6-191.9,126.5c-4.4,21.4-4.4,43.5-0.1,64.9c0.6,3,3.2,5.1,6.2,5
		c0.4,0,0.8,0,1.2,0c3.4-0.7,5.6-4,4.9-7.4c0,0,0,0,0,0c-1.6-7.8-2.5-15.7-2.8-23.6H172c0,8.6,0.7,17.1,1.5,25.4
		c0.3,3.2,3,5.6,6.2,5.6h0.6c3.4-0.3,5.9-3.4,5.6-6.8c0,0,0,0,0,0c-0.8-7.9-1.3-16-1.4-24.2h65.2v47.4c-2.2,0-4.4,0-6.6,0.3
		c-3.5,0.3-6,3.3-5.8,6.7c0.3,3.5,3.3,6,6.7,5.8c1.9,0,3.7-0.2,5.6-0.3V406c-8-0.3-15.9-1.3-23.8-2.8c-3.4-0.7-6.7,1.5-7.4,4.9
		c-0.7,3.4,1.5,6.7,4.9,7.4c10.7,2.1,21.6,3.1,32.5,3.1l0,0c89.7,0,162.5-72.8,162.5-162.5c0-11-1.1-22-3.3-32.7
		C414.4,219.9,411.2,217.8,407.8,218.5z M368.7,355c-11-10.6-23.5-19.6-37-26.7c5.3-21.6,8.1-43.8,8.4-66h66
		C404.6,296.5,391.4,329.3,368.7,355z M249.8,106.6v83.2c-18.7-0.7-37.1-5-54.3-12.5C207.2,138.4,227.2,111,249.8,106.6z
		 M183.8,171.4c-11.6-6.4-22.3-14.3-31.8-23.4c18.3-17.8,40.9-30.5,65.6-37C203.5,124.8,191.8,145.6,183.8,171.4z M143.5,157
		c11,10.6,23.4,19.6,36.9,26.8c-5.3,21.6-8.1,43.7-8.4,65.9h-65.8C107.5,215.5,120.7,182.7,143.5,157z M184.5,249.8
		c0.4-20.3,2.9-40.6,7.7-60.4c18.2,7.8,37.8,12.2,57.6,12.9v47.4H184.5z M327.5,262.2c-0.4,20.3-3,40.6-7.7,60.3
		c-18.2-7.8-37.8-12.2-57.6-12.9v-47.4H327.5z M262.2,405.4v-83.2c18.7,0.7,37.1,5,54.3,12.5C304.8,373.6,284.8,401,262.2,405.4z
		 M328.2,340.6c11.6,6.4,22.3,14.3,31.8,23.5c-18.3,17.7-40.9,30.5-65.6,37C308.5,387.2,320.2,366.4,328.2,340.6z"/>
	<path class="st1" d="M442.5,56h-124c-6.5-0.4-12.1,4.6-12.5,11.1c0,0.4,0,0.9,0,1.4v100c-0.2,10.8-6.2,20.7-15.6,25.9
		c-3,1.8-3.9,5.6-2.1,8.6c1.1,1.8,3.1,3,5.2,3h149c7.5,0,13.5-6.1,13.5-13.6c0,0,0,0,0,0V69.6C456,62.1,450,56,442.5,56
		C442.5,56,442.5,56,442.5,56z M443.5,192.4c0,0.6-0.4,1.1-1,1.1c0,0,0,0,0,0H309.9c5.6-7.1,8.6-15.9,8.6-25v-100h124
		c0.6,0,1,0.5,1,1.1c0,0,0,0,0,0V192.4z"/>
	<path class="st1" d="M224.5,310.6c-0.8-2.7-3.2-4.6-6-4.6h-149C62,306,56,312.1,56,319.6c0,0,0,0,0,0v122.8c0,7.5,6,13.6,13.5,13.6
		c0,0,0,0,0,0h124c6.5,0.4,12.1-4.6,12.5-11.1c0-0.4,0-0.9,0-1.4v-100c0.2-10.8,6.2-20.7,15.6-25.9
		C224.1,316.2,225.3,313.3,224.5,310.6z M193.5,343.5v100h-124c-0.6,0-1-0.5-1-1.1c0,0,0,0,0,0V319.6c0-0.6,0.4-1.1,1-1.1
		c0,0,0,0,0,0h132.6C196.5,325.6,193.5,334.4,193.5,343.5z"/>
	<path class="st0" d="M99.8,368.5h62.5c3.5,0,6.2-2.8,6.2-6.2s-2.8-6.2-6.2-6.2H99.8c-3.5,0-6.2,2.8-6.2,6.2S96.3,368.5,99.8,368.5z
		"/>
	<path class="st0" d="M99.8,406h37.5c3.5,0,6.2-2.8,6.2-6.2c0-3.5-2.8-6.2-6.2-6.2H99.8c-3.5,0-6.2,2.8-6.2,6.2
		C93.5,403.2,96.3,406,99.8,406z"/>
	<path class="st0" d="M412.2,106h-62.5c-3.5,0-6.2,2.8-6.2,6.2c0,3.5,2.8,6.2,6.2,6.2h62.5c3.5,0,6.2-2.8,6.2-6.2
		C418.5,108.8,415.7,106,412.2,106z"/>
	<path class="st0" d="M399.7,143.5h-50c-3.5,0-6.2,2.8-6.2,6.2s2.8,6.2,6.2,6.2h50c3.5,0,6.2-2.8,6.2-6.2S403.2,143.5,399.7,143.5z"
		/>
</g>
</svg>
